<?xml version="1.0" encoding="UTF-8"?>
<svg version="1.1" xmlns="http://www.w3.org/2000/svg" width="146" height="30">
<path d="M0 0 C3.58305992 -0.11627503 7.16563417 -0.1872736 10.75 -0.25 C11.76578125 -0.28351562 12.7815625 -0.31703125 13.828125 -0.3515625 C21.39500069 -0.45112665 21.39500069 -0.45112665 24.703125 2.015625 C25.13109375 2.67046875 25.5590625 3.3253125 26 4 C26.598125 3.34 27.19625 2.68 27.8125 2 C32.44161669 -0.90454381 36.67268974 -0.33587245 42 0 C41.44854729 5.23880078 40.57077907 9.97350697 39 15 C37.06440687 15.13504138 35.126128 15.23201129 33.1875 15.3125 C32.10855469 15.37050781 31.02960938 15.42851562 29.91796875 15.48828125 C27 15 27 15 25.11328125 12.48046875 C24.56220703 11.25263672 24.56220703 11.25263672 24 10 C23.29875 10.825 22.5975 11.65 21.875 12.5 C19 15 19 15 15.6875 15.3125 C14.3571875 15.1578125 14.3571875 15.1578125 13 15 C12.01 17.475 12.01 17.475 11 20 C9.35 20 7.7 20 6 20 C6.55145271 14.76119922 7.42922093 10.02649303 9 5 C7.35 5 5.7 5 4 5 C3.86722656 5.63808594 3.73445313 6.27617187 3.59765625 6.93359375 C3.42105469 7.75988281 3.24445313 8.58617187 3.0625 9.4375 C2.88847656 10.26121094 2.71445313 11.08492187 2.53515625 11.93359375 C2 14 2 14 1 15 C-0.66617115 15.04063832 -2.33388095 15.042721 -4 15 C-3.71459486 13.43634416 -3.42136502 11.87411566 -3.125 10.3125 C-2.96257812 9.44238281 -2.80015625 8.57226562 -2.6328125 7.67578125 C-1.99419952 4.97547329 -1.09215515 2.54683238 0 0 Z M33 4 C31.4166747 5.2488427 31.4166747 5.2488427 30 7 C30 8.32 30 9.64 30 11 C31.95894361 10.88693303 31.95894361 10.88693303 34 10 C35.29660434 7.50965614 35.29660434 7.50965614 36 5 C35.01 4.67 34.02 4.34 33 4 Z M17 4 C15.4166747 5.2488427 15.4166747 5.2488427 14 7 C14 8.32 14 9.64 14 11 C15.32 10.67 16.64 10.34 18 10 C18.33 8.35 18.66 6.7 19 5 C18.34 4.67 17.68 4.34 17 4 Z " fill="#062553" transform="translate(87,10)"/>
<path d="M0 0 C-1.32790009 8.5614611 -3.53354672 16.69627397 -6 25 C-11.28 25 -16.56 25 -22 25 C-21.63243243 17.64864865 -21.63243243 17.64864865 -18.5625 14.5 C-16 13 -16 13 -14 13 C-14.07863281 12.24074219 -14.15726563 11.48148438 -14.23828125 10.69921875 C-14 8 -14 8 -12.35546875 6.26953125 C-11.64003906 5.78871094 -10.92460937 5.30789062 -10.1875 4.8125 C-9.47980469 4.32394531 -8.77210937 3.83539063 -8.04296875 3.33203125 C-7.03169922 2.67267578 -7.03169922 2.67267578 -6 2 C-3 -0 -3 -0 0 0 Z " fill="#3295FE" transform="translate(22,0)"/>
<path d="M0 0 C2.12493141 -0.02693575 4.24995912 -0.04636628 6.375 -0.0625 C7.55835938 -0.07410156 8.74171875 -0.08570313 9.9609375 -0.09765625 C13 0 13 0 15 1 C15.25 7.625 15.25 7.625 13 11 C12.34 11 11.68 11 11 11 C11.33 11.66 11.66 12.32 12 13 C12.04022391 15.3329866 12.04320247 17.66706666 12 20 C10.35 20 8.7 20 7 20 C6.34 17.69 5.68 15.38 5 13 C4.34 13 3.68 13 3 13 C2.34 15.31 1.68 17.62 1 20 C-0.98 20 -2.96 20 -5 20 C-3.33333333 13.33333333 -1.66666667 6.66666667 0 0 Z M5 4 C4.67 5.32 4.34 6.64 4 8 C5.65 8 7.3 8 9 8 C9.33 6.68 9.66 5.36 10 4 C8.35 4 6.7 4 5 4 Z " fill="#062553" transform="translate(24,5)"/>
<path d="M0 0 C1.09570312 0.00902344 2.19140625 0.01804687 3.3203125 0.02734375 C4.16335937 0.03894531 5.00640625 0.05054688 5.875 0.0625 C5.59117054 1.81378818 5.29760471 3.56350003 5 5.3125 C4.83757813 6.28703125 4.67515625 7.2615625 4.5078125 8.265625 C3.875 11.0625 3.875 11.0625 1.875 15.0625 C-2.085 15.0625 -6.045 15.0625 -10.125 15.0625 C-11.69812496 11.39187509 -12.26940048 9.61947326 -11.25 5.6875 C-10.87875 4.82125 -10.5075 3.955 -10.125 3.0625 C-9.465 3.0625 -8.805 3.0625 -8.125 3.0625 C-8.125 2.4025 -8.125 1.7425 -8.125 1.0625 C-5.36047967 -0.31976016 -3.0788637 -0.03275387 0 0 Z M-4.125 4.0625 C-6.49480013 7.01627498 -6.49480013 7.01627498 -6.125 11.0625 C-4.805 10.7325 -3.485 10.4025 -2.125 10.0625 C-1.795 8.4125 -1.465 6.7625 -1.125 5.0625 C-2.115 4.7325 -3.105 4.4025 -4.125 4.0625 Z " fill="#062553" transform="translate(49.125,9.9375)"/>
<path d="M0 0 C1.65 0 3.3 0 5 0 C5.66 1.65 6.32 3.3 7 5 C7.556875 4.175 8.11375 3.35 8.6875 2.5 C11 0 11 0 13.75 -0.3125 C14.86375 -0.1578125 14.86375 -0.1578125 16 0 C14.43062793 4.69914836 11.83473621 8.29959589 8.9375 12.25 C8.24817383 13.20519531 8.24817383 13.20519531 7.54492188 14.1796875 C4.19148166 18.80851834 4.19148166 18.80851834 3 20 C1.00041636 20.04080783 -1.00045254 20.04254356 -3 20 C-2.319375 19.29875 -1.63875 18.5975 -0.9375 17.875 C2.62607457 12.72344658 0.73661915 5.8449128 0 0 Z " fill="#062553" transform="translate(130,10)"/>
<path d="M0 0 C2 1.0625 2 1.0625 3 3 C3 7.2372059 2.37939492 9.45964966 -0.0625 12.9375 C-4.09684668 15.77012639 -6.14866152 15.55671097 -11 15 C-13 13 -13 13 -13.375 9.6875 C-12.94452982 5.45454323 -11.96639625 3.96639625 -9 1 C-5.95016004 -0.52491998 -3.3576631 -0.23562548 0 0 Z M-6.625 5.25 C-8.41188103 7.15328527 -8.41188103 7.15328527 -8 11 C-5.24358584 10.50243908 -5.24358584 10.50243908 -3 9 C-2.95936168 7.33382885 -2.957279 5.66611905 -3 4 C-5.07748408 3.79676308 -5.07748408 3.79676308 -6.625 5.25 Z " fill="#062555" transform="translate(81,10)"/>
<path d="M0 0 C3.96 0 7.92 0 12 0 C11.67 1.65 11.34 3.3 11 5 C8.9375 6.3125 8.9375 6.3125 7 7 C7 7.66 7 8.32 7 9 C6.01 9.495 6.01 9.495 5 10 C6.65 10.33 8.3 10.66 10 11 C9.67 12.32 9.34 13.64 9 15 C4.71 15 0.42 15 -4 15 C-3.01641451 11.06565804 -2.691807 10.32850017 0.0625 7.75 C0.88427734 6.96882813 0.88427734 6.96882813 1.72265625 6.171875 C2.35494141 5.59179688 2.35494141 5.59179688 3 5 C1.68 4.67 0.36 4.34 -1 4 C-0.67 2.68 -0.34 1.36 0 0 Z " fill="#062555" transform="translate(57,10)"/>
<path d="M0 0 C-0.47603774 2.12570312 -0.95592598 4.25054427 -1.4375 6.375 C-1.70433594 7.55835938 -1.97117187 8.74171875 -2.24609375 9.9609375 C-3 13 -3 13 -4 15 C-7.3 15 -10.6 15 -14 15 C-14.05433612 11.84850477 -14.08212671 9.89781047 -13 7 C-9.69185524 3.96968771 -4.64631625 0 0 0 Z " fill="#072654" transform="translate(14,10)"/>
</svg>
