<?xml version="1.0" encoding="UTF-8"?>
<svg version="1.1" xmlns="http://www.w3.org/2000/svg" width="83" height="35">
<path d="M0 0 C13 0 13 0 16.3125 2.5 C16.869375 3.325 17.42625 4.15 18 5 C19.299375 3.7625 19.299375 3.7625 20.625 2.5 C22.98607645 0.55002863 23.94369534 0.01034167 27.0625 -0.5625 C30.90513811 0.17332432 32.44507948 1.00709311 35 4 C35.71668597 7.06172462 35.86023623 9.83202116 36 13 C32.7 13.33 29.4 13.66 26 14 C28.97 14 31.94 14 35 14 C35 15.98 35 17.96 35 20 C31.29012673 21.85493664 27.03860349 21.59596347 23 21 C20.70672475 19.55214852 19.65562281 18.20749707 18 16 C17.2265625 17.2375 17.2265625 17.2375 16.4375 18.5 C14 21 14 21 10.25 21.3125 C9.1775 21.209375 8.105 21.10625 7 21 C7 22.65 7 24.3 7 26 C4.69 26.33 2.38 26.66 0 27 C0 18.09 0 9.18 0 0 Z M7 6 C7 8.97 7 11.94 7 15 C8.32 14.67 9.64 14.34 11 14 C11.6878236 11.64632287 11.6878236 11.64632287 12 9 C11.34 8.01 10.68 7.02 10 6 C9.01 6 8.02 6 7 6 Z M26 6 C25.67 6.66 25.34 7.32 25 8 C26.32 8 27.64 8 29 8 C29 7.34 29 6.68 29 6 C28.01 6 27.02 6 26 6 Z " fill="#625AFF" transform="translate(46,7)"/>
<path d="M0 0 C0.66 0.33 1.32 0.66 2 1 C2 2.32 2 3.64 2 5 C6.95 5 11.9 5 17 5 C17 7.31 17 9.62 17 12 C15.68 12 14.36 12 13 12 C13 16.62 13 21.24 13 26 C10.56183415 26.0809723 8.12635616 26.14046972 5.6875 26.1875 C4.65206055 26.22520508 4.65206055 26.22520508 3.59570312 26.26367188 C-1.55674183 26.33834499 -1.55674183 26.33834499 -3.98046875 24.48828125 C-4.31691406 23.99714844 -4.65335938 23.50601562 -5 23 C-5.55300781 23.48984375 -6.10601562 23.9796875 -6.67578125 24.484375 C-9.43995181 26.28689294 -10.92528879 26.34637256 -14.1875 26.25 C-15.50814453 26.22679687 -15.50814453 26.22679687 -16.85546875 26.203125 C-19 26 -19 26 -20 25 C-20.04080783 23.00041636 -20.04254356 20.99954746 -20 19 C-17.69 19 -15.38 19 -13 19 C-13.969375 18.525625 -14.93875 18.05125 -15.9375 17.5625 C-19 16 -19 16 -20 15 C-20.38721999 11.51502007 -20.39387281 9.62363194 -18.5 6.625 C-14.82376959 4.23545023 -12.34504114 4.64959346 -8 5 C-7.34 5.33 -6.68 5.66 -6 6 C-6 7.98 -6 9.96 -6 12 C-7.98 12 -9.96 12 -12 12 C-10.02 12.99 -8.04 13.98 -6 15 C-5.67 10.71 -5.34 6.42 -5 2 C-3.35 1.34 -1.7 0.68 0 0 Z M2 11 C2 13.97 2 16.94 2 20 C3.32 20 4.64 20 6 20 C6 17.03 6 14.06 6 11 C4.68 11 3.36 11 2 11 Z " fill="#635BFE" transform="translate(21,2)"/>
<path d="M0 0 C0 9.24 0 18.48 0 28 C-1.98 28 -3.96 28 -6 28 C-6 19.09 -6 10.18 -6 1 C-4 0 -4 0 0 0 Z " fill="#625AFF" transform="translate(45,0)"/>
</svg>
